<?xml version="1.0" standalone="no"?>
<!DOCTYPE svg PUBLIC "-//W3C//DTD SVG 20010904//EN"
 "http://www.w3.org/TR/2001/REC-SVG-20010904/DTD/svg10.dtd">
<svg version="1.0" xmlns="http://www.w3.org/2000/svg"
 width="35.000000pt" height="34.000000pt" viewBox="0 0 35.000000 34.000000"
 preserveAspectRatio="xMidYMid meet">

<g transform="translate(0.000000,34.000000) scale(0.100000,-0.100000)"
fill="#000000" stroke="none">
<path d="M95 326 c-45 -19 -60 -44 -61 -96 0 -31 -6 -54 -17 -65 -22 -21 -21
-31 2 -52 14 -12 18 -24 14 -47 -8 -51 8 -57 148 -54 l124 3 0 42 c0 23 6 48
13 54 15 16 16 45 2 54 -5 3 -10 27 -10 53 0 28 -7 57 -16 71 -33 47 -134 66
-199 37z m141 -16 c34 -13 53 -38 54 -67 0 -23 -2 -23 -125 -23 -73 0 -125 4
-125 10 0 25 28 64 55 76 36 16 104 18 141 4z m54 -120 c0 -5 -11 -10 -25 -10
-23 0 -25 -3 -25 -49 0 -28 -4 -53 -10 -56 -6 -4 -10 15 -10 49 l0 56 -39 0
c-22 0 -42 -6 -45 -12 -5 -10 -7 -10 -12 0 -3 6 -21 12 -40 12 -19 0 -34 5
-34 10 0 6 47 10 120 10 73 0 120 -4 120 -10z m-185 -30 c4 -7 24 -8 51 -4 40
6 44 4 44 -15 0 -20 -5 -21 -84 -21 -66 0 -85 3 -90 15 -9 25 65 48 79 25z
m195 0 c27 -15 14 -40 -21 -40 -21 0 -29 5 -29 18 0 32 17 40 50 22z m-132
-67 c-21 -2 -57 -2 -80 0 -24 2 -7 4 37 4 44 0 63 -2 43 -4z m114 -5 c-9 -9
-15 -9 -24 0 -9 9 -7 12 12 12 19 0 21 -3 12 -12z m-82 -28 c0 -5 11 -10 25
-10 14 0 25 5 25 10 0 6 9 10 21 10 14 0 19 -5 17 -17 -3 -16 -18 -18 -117
-21 -83 -2 -117 1 -122 10 -4 6 -5 16 -3 20 8 12 154 10 154 -2z"/>
</g>
</svg>
